<?xml version="1.0" encoding="utf-8"?>
<!-- Generator: Adobe Illustrator 16.0.0, SVG Export Plug-In . SVG Version: 6.00 Build 0)  -->
<!DOCTYPE svg PUBLIC "-//W3C//DTD SVG 1.0//EN" "http://www.w3.org/TR/2001/REC-SVG-20010904/DTD/svg10.dtd">
<svg version="1.0" id="Capa_1" xmlns="http://www.w3.org/2000/svg" xmlns:xlink="http://www.w3.org/1999/xlink" x="0px" y="0px"
	 width="1130px" height="188px" viewBox="0 0 1130 188" enable-background="new 0 0 1130 188" xml:space="preserve">
<g>
	<g>
		<g>
			<path fill="#010101" d="M283.572,117.851c-1.278,0.91-2.181,1.268-2.644,1.926c-6.438,9.182-20.196,8.357-25.059-1.917
				c-1.97-4.166-3.031-9.099-3.156-13.719c-0.18-6.653,0.067-13.532,1.594-19.97c2.219-9.363,10.359-13.631,19.639-11.004
				c2.454,0.695,4.462,2.98,6.652,4.57c0.861,0.627,1.658,1.345,2.763,2.245c0-7.049-0.019-13.283,0.006-19.522
				c0.014-3.786,1.283-5.266,4.397-5.246c3.375,0.019,4.681,1.478,4.683,5.396c0.014,19.514,0.008,39.024,0.008,58.54
				c-0.002,5.319-1.021,6.703-4.809,6.559C284.066,125.57,283.247,124.239,283.572,117.851z M283.832,99.213
				c-0.643-4.061-0.924-8.135-1.992-11.992c-1.419-5.123-4.983-7.393-10.078-7.242c-4.793,0.146-8.571,2.678-9.046,7.904
				c-0.684,7.534-0.681,15.227,0.024,22.757c0.49,5.229,4.307,7.767,9.064,7.875c5.096,0.114,8.624-2.183,10.025-7.313
				C282.885,107.334,283.185,103.262,283.832,99.213z"/>
			<path fill="#010101" d="M396.494,82.391c1.445-1.409,2.431-2.013,2.896-2.891c3.123-5.819,8.197-7.629,14.35-6.922
				c6.044,0.697,9.959,4.1,11.416,10.082c0.464,1.902,0.965,3.865,0.982,5.806c0.11,10.916,0.123,21.835,0.074,32.753
				c-0.014,3.268-1.604,4.646-4.801,4.531c-2.99-0.104-4.333-1.614-4.31-4.651c0.066-9.406,0.035-18.813,0.008-28.224
				c-0.007-1.734-0.059-3.489-0.313-5.202c-0.676-4.492-2.664-6.895-6.059-7.559c-4.381-0.857-8.746,0.526-10.349,4.519
				c-1.729,4.313-2.854,9.066-3.18,13.7c-0.517,7.396-0.13,14.856-0.162,22.291c-0.019,3.799-1.218,5.115-4.509,5.119
				c-3.327,0-4.563-1.306-4.563-5.094c-0.022-20.095-0.021-40.188-0.004-60.276c0.004-3.704,1.318-5.146,4.533-5.172
				c3.176-0.024,4.592,1.463,4.523,5.144c-0.101,5.565-0.365,11.129-0.539,16.692C396.458,78.407,396.494,79.779,396.494,82.391z"/>
			<path fill="#010101" d="M202.447,100.308c0.438-4.37,0.431-8.84,1.401-13.089c2.301-10.056,8.567-14.708,19.002-14.775
				c10.788-0.069,17.211,4.384,19.583,14.494c1.924,8.193,1.979,16.648-0.054,24.843c-2.619,10.555-10.043,15.137-21.861,14.21
				c-9.672-0.759-16.161-7.213-17.285-17.306c-0.311-2.767-0.365-5.558-0.536-8.334C202.613,100.336,202.53,100.321,202.447,100.308
				z M211.638,99.213c0.419,4.158,0.434,8.271,1.322,12.186c1.196,5.256,4.575,7.396,10.281,7.439
				c5.374,0.039,9.491-2.146,9.959-7.244c0.759-8.217,0.743-16.608-0.063-24.819c-0.498-5.083-4.537-7.146-10.039-7.115
				c-5.459,0.027-8.895,2.168-10.068,7.236C212.097,90.915,212.064,95.144,211.638,99.213z"/>
			<path fill="#010101" d="M437.409,100.31c0.438-4.37,0.434-8.842,1.402-13.089c2.301-10.055,8.564-14.71,19.001-14.777
				c10.789-0.069,17.208,4.379,19.584,14.492c1.925,8.195,1.979,16.648-0.054,24.844c-2.614,10.554-10.045,15.136-21.857,14.211
				c-9.673-0.758-16.166-7.211-17.291-17.305c-0.31-2.766-0.362-5.555-0.535-8.333C437.577,100.336,437.493,100.325,437.409,100.31z
				 M446.602,99.28c0.419,4.128,0.438,8.239,1.33,12.148c1.199,5.24,4.604,7.387,10.311,7.41c5.37,0.023,9.45-2.174,9.94-7.278
				c0.776-8.104,0.788-16.39,0.047-24.5c-0.474-5.14-4.427-7.317-9.854-7.402c-5.605-0.089-9.188,2.097-10.391,7.271
				C447.053,90.947,447.025,95.18,446.602,99.28z"/>
			<path fill="#010101" d="M519.007,116.351c-1.282,1.119-2.222,1.604-2.655,2.369c-3.352,5.89-7.912,8.194-14.397,7.139
				c-6.642-1.083-10.791-4.771-11.454-11.641c-0.722-7.479-0.564-15.048-0.712-22.579c-0.088-4.645-0.047-9.288-0.006-13.934
				c0.032-3.614,1.452-5.137,4.677-5.005c3.105,0.125,4.479,1.718,4.441,4.921c-0.104,9.521-0.042,19.042-0.028,28.563
				c0.003,1.509-0.039,3.036,0.166,4.521c0.614,4.459,2.834,7.064,6.379,7.7c4.395,0.787,8.715-0.683,10.219-4.726
				c1.705-4.575,2.784-9.55,3.14-14.423c0.519-7.161,0.116-14.389,0.169-21.588c0.021-3.623,1.42-5.044,4.685-5
				c2.967,0.041,4.396,1.563,4.403,4.99c0.032,14.396,0.034,28.797-0.002,43.191c-0.012,3.556-1.527,5.003-4.813,4.896
				c-3.151-0.104-4.313-1.486-4.213-4.998C519.034,119.622,519.007,118.485,519.007,116.351z"/>
			<path fill="#010101" d="M313.674,101.622c0,2.629-0.23,4.73,0.043,6.77c0.863,6.388,3.791,9.199,10.205,9.679
				c3.695,0.274,7.422,0.149,11.133,0.155c2.468,0.004,4.09,0.938,4.021,3.629c-0.064,2.628-1.652,3.604-4.133,3.574
				c-3.715-0.049-7.431,0.037-11.143-0.039c-11.649-0.246-18.252-5.997-19.158-17.657c-0.519-6.661-0.344-13.486,0.487-20.119
				c1.331-10.612,8.378-15.698,19.647-15.136c9.176,0.459,15.856,7.293,16.512,16.979c0.158,2.313,0.176,4.641,0.135,6.958
				c-0.072,3.922-1.277,5.145-5.285,5.188c-6.148,0.068-12.3,0.021-18.452,0.021C316.431,101.622,315.178,101.622,313.674,101.622z
				 M332.298,95.215c-0.133-5.545,0.781-11.12-4.542-14.453c-3.265-2.048-7.104-1.98-10.171,0.39
				c-4.621,3.57-4.037,8.865-4.063,14.063C319.879,95.215,325.859,95.215,332.298,95.215z"/>
			<path fill="#010101" d="M586.987,101.622c0,2.646-0.233,4.752,0.041,6.787c0.869,6.377,3.806,9.188,10.226,9.661
				c3.694,0.271,7.422,0.146,11.136,0.151c2.477,0.006,4.07,0.97,3.998,3.647c-0.063,2.396-1.427,3.551-3.804,3.537
				c-4.411-0.022-8.833,0.151-13.229-0.115c-10.349-0.629-16.423-6.325-17.354-17.239c-0.578-6.769-0.392-13.72,0.447-20.464
				c1.317-10.605,8.392-15.688,19.661-15.114c9.175,0.468,15.843,7.311,16.495,16.998c0.15,2.313,0.174,4.645,0.13,6.959
				c-0.072,3.91-1.284,5.123-5.305,5.169c-6.149,0.066-12.304,0.021-18.455,0.021C589.721,101.622,588.469,101.622,586.987,101.622z
				 M605.522,95.184c0.034-5.363,0.797-10.747-4.228-14.347c-2.841-2.032-7.979-1.821-10.515,0.342
				c-4.436,3.78-3.931,8.92-3.979,14.005C593.272,95.184,599.257,95.184,605.522,95.184z"/>
			<path fill="#010101" d="M549.127,125.416c-2.089,0-4.177-0.03-6.265,0.006c-2.555,0.046-4.345-0.729-4.311-3.693
				c0.031-2.776,1.75-3.507,4.143-3.501c3.362,0.01,6.729,0.077,10.092-0.049c3.125-0.116,6.049-0.716,7.076-4.374
				c0.944-3.374-0.016-5.977-3.388-8.332c-3.701-2.587-7.563-4.949-11.196-7.633c-5.59-4.131-7.618-9.979-5.771-15.854
				c1.681-5.321,7.112-8.778,13.994-8.867c2.899-0.037,5.803,0.052,8.701-0.031c2.575-0.073,4.782,0.323,4.854,3.507
				c0.08,3.49-2.371,3.686-5.014,3.667c-2.895-0.017-5.891-0.313-8.648,0.331c-1.854,0.434-4.035,1.945-4.881,3.589
				c-1.234,2.392-0.354,5.066,2.014,6.753c3.486,2.485,7.07,4.84,10.619,7.242c4.502,3.05,7.935,6.792,8.104,12.613
				c0.239,8.043-5.072,13.957-13.171,14.543c-2.31,0.17-4.639,0.024-6.958,0.024C549.127,125.377,549.127,125.398,549.127,125.416z"
				/>
			<path fill="#010101" d="M186.98,73.116c1.506,0,3.016-0.006,4.521,0.001c2.278,0.005,3.39,1.168,3.455,3.429
				c0.073,2.438-1.063,3.634-3.522,3.699c-2.659,0.064-5.34,0.069-7.971,0.412c-5.182,0.675-8.287,3.266-8.668,8.403
				c-0.494,6.667-0.517,13.423-0.029,20.088c0.402,5.5,3.559,8.103,9.127,8.749c2.523,0.292,5.089,0.255,7.637,0.346
				c2.224,0.082,3.439,1.109,3.438,3.438c0,2.392-1.072,3.729-3.539,3.726c-3.016-0.012-6.053,0.159-9.041-0.145
				c-8.758-0.887-14.023-5.313-16.156-13.834c-2.002-7.985-2.064-16.112-0.066-24.104c2.345-9.382,8.382-13.966,18.03-14.191
				c0.928-0.021,1.854-0.003,2.785-0.003L186.98,73.116L186.98,73.116z"/>
			<path fill="#010101" d="M362.724,81.662c0.729-0.794,1.685-1.479,2.151-2.401c2.372-4.679,6.14-7.004,10.787-6.617
				c2.654,0.221,3.552,1.723,3.527,4.177c-0.022,2.412,0.014,4.684-3.215,5.188c-10.551,1.646-13.375,4.757-13.688,15.563
				c-0.223,7.766-0.042,15.539-0.1,23.311c-0.029,3.854-1.658,5.162-5.445,4.768c-2.399-0.25-3.594-1.565-3.602-3.852
				c-0.033-15.074-0.035-30.149,0.004-45.229c0.008-3.072,2.217-3.886,4.736-3.828c2.627,0.059,4.479,1.229,4.287,4.26
				c-0.082,1.267-0.24,2.528-0.361,3.794C362.119,81.079,362.425,81.371,362.724,81.662z"/>
		</g>
		<g>
			
				<linearGradient id="SVGID_1_" gradientUnits="userSpaceOnUse" x1="-470.3486" y1="492.5098" x2="-468.3487" y2="394.5122" gradientTransform="matrix(1 0 0 -1 564 538)">
				<stop  offset="0" style="stop-color:#00F1CC"/>
				<stop  offset="0.0826" style="stop-color:#00ECCE"/>
				<stop  offset="0.6782" style="stop-color:#00C9DD"/>
				<stop  offset="1" style="stop-color:#00BCE3"/>
			</linearGradient>
			<path fill="url(#SVGID_1_)" d="M126.223,76.197h0.01l-0.048-0.428c-0.334-0.354-26.716-23.688-26.716-23.688
				c-0.234-0.234-1.386-1.813-5.034-1.813c-2.846,0-4.702,1.227-5.143,1.662l-0.006-0.029c-0.015-0.001-26.376,23.524-26.71,23.881
				l-0.047,0.415h0.008c-1.314,1-2.127,2.916-2.127,5c0,4.373,3.545,7.724,7.917,7.724c2.696,0,5.073-1.446,6.503-3.504l0.059-0.049
				c0,0,11.645-21.975,19.483-21.975c7.841-0.002,19.493,21.938,19.493,21.938l0.065-0.008c1.431,2.057,3.808,3.403,6.502,3.403
				c4.373,0,7.918-3.156,7.918-7.528C128.351,79.116,127.54,77.197,126.223,76.197z"/>
			
				<linearGradient id="SVGID_2_" gradientUnits="userSpaceOnUse" x1="-470.7549" y1="492.5029" x2="-468.7549" y2="394.5029" gradientTransform="matrix(1 0 0 -1 564 538)">
				<stop  offset="0" style="stop-color:#00F1CC"/>
				<stop  offset="0.0826" style="stop-color:#00ECCE"/>
				<stop  offset="0.6782" style="stop-color:#00C9DD"/>
				<stop  offset="1" style="stop-color:#00BCE3"/>
			</linearGradient>
			<path fill="url(#SVGID_2_)" d="M126.847,105.072c0-3.766-1.42-6.521-5.314-6.521c-4.374,0-7.92,3.546-7.92,7.92
				c0,11.391-0.7,21.387-19.027,21.387c-18.613,0-19.554-11.233-19.554-21.387c0-4.374-3.135-7.92-7.508-7.92
				c-4.252,0-5.564,3.351-5.429,7.557c0.207,6.412,3.935,16.651,7.54,25.563c2.738,6.771,13.066,6.037,24.913,6.037
				c11.147,0,21.262,0.078,24.148-6.037C122.879,122.81,126.847,113.9,126.847,105.072z"/>
		</g>
	</g>
	<g>
		<path d="M667.521,66.635c6.193,0,10.988,1.576,14.383,4.727c3.394,3.151,5.092,7.323,5.092,12.517
			c0,5.248-1.698,9.44-5.092,12.578c-3.395,3.138-8.189,4.706-14.383,4.706h-13.47v20.448l6.613,0.527v3.57H642.61v-3.57
			l6.613-0.527V70.773l-6.613-0.527v-3.611h6.613H667.521z M654.052,97.023h13.47c4.868,0,8.526-1.237,10.975-3.712
			c2.447-2.475,3.672-5.592,3.672-9.352c0-3.787-1.218-6.931-3.651-9.433c-2.435-2.501-6.1-3.753-10.995-3.753h-13.47V97.023z"/>
		<path d="M694.461,66.026v-3.611h11.441v59.195l6.613,0.527v3.57h-18.055v-3.57l6.613-0.527V66.554L694.461,66.026z"/>
		<path d="M750.491,125.708c-0.325-1.487-0.555-2.772-0.69-3.854c-0.136-1.081-0.202-2.177-0.202-3.286
			c-1.623,2.299-3.787,4.206-6.492,5.721s-5.748,2.271-9.129,2.271c-4.3,0-7.627-1.108-9.98-3.326
			c-2.353-2.218-3.529-5.22-3.529-9.007c0-4.058,1.744-7.276,5.233-9.656s8.223-3.57,14.2-3.57h9.697v-5.802
			c0-3.138-1.009-5.599-3.023-7.384s-4.835-2.678-8.459-2.678c-2.435,0-4.659,0.332-6.674,0.994
			c-2.016,0.663-3.699,1.562-5.052,2.698l-0.405,5.883h-4.017l0.04-8.439c2.029-1.568,4.456-2.84,7.283-3.813
			c2.826-0.974,5.835-1.461,9.027-1.461c4.841,0,8.736,1.231,11.685,3.692c2.948,2.461,4.423,5.991,4.423,10.589v21.584
			c0,0.893,0.02,1.752,0.061,2.576c0.04,0.825,0.128,1.63,0.264,2.414l4.382,0.284v3.57H750.491z M734.506,122.26
			c3.516,0,6.613-0.812,9.291-2.435s4.61-3.719,5.802-6.289v-8.804h-9.778c-4.409,0-7.932,0.913-10.569,2.738
			c-2.637,1.826-3.955,4.132-3.955,6.918c0,2.353,0.817,4.254,2.454,5.7C729.387,121.536,731.638,122.26,734.506,122.26z"/>
		<path d="M777.188,70.571v11.238h9.656v3.976h-9.656v28.604c0,2.867,0.521,4.902,1.563,6.105c1.04,1.204,2.427,1.806,4.158,1.806
			c0.784,0,1.548-0.033,2.292-0.102c0.744-0.067,1.603-0.183,2.576-0.345l0.73,3.611c-0.812,0.351-1.799,0.622-2.962,0.812
			c-1.163,0.188-2.326,0.283-3.489,0.283c-3.083,0-5.483-0.974-7.201-2.921s-2.576-5.031-2.576-9.25V85.785h-7.547v-3.976h7.547
			V70.571H777.188z"/>
		<path d="M826.077,125.708c-0.325-1.487-0.555-2.772-0.69-3.854c-0.136-1.081-0.202-2.177-0.202-3.286
			c-1.623,2.299-3.787,4.206-6.492,5.721s-5.748,2.271-9.129,2.271c-4.3,0-7.627-1.108-9.98-3.326
			c-2.353-2.218-3.529-5.22-3.529-9.007c0-4.058,1.744-7.276,5.233-9.656s8.223-3.57,14.2-3.57h9.697v-5.802
			c0-3.138-1.009-5.599-3.023-7.384s-4.835-2.678-8.459-2.678c-2.435,0-4.659,0.332-6.674,0.994
			c-2.016,0.663-3.699,1.562-5.052,2.698l-0.405,5.883h-4.017l0.04-8.439c2.029-1.568,4.456-2.84,7.283-3.813
			c2.826-0.974,5.835-1.461,9.027-1.461c4.841,0,8.736,1.231,11.685,3.692c2.948,2.461,4.423,5.991,4.423,10.589v21.584
			c0,0.893,0.02,1.752,0.061,2.576c0.04,0.825,0.128,1.63,0.264,2.414l4.382,0.284v3.57H826.077z M810.092,122.26
			c3.516,0,6.613-0.812,9.291-2.435s4.61-3.719,5.802-6.289v-8.804h-9.778c-4.409,0-7.932,0.913-10.569,2.738
			c-2.637,1.826-3.955,4.132-3.955,6.918c0,2.353,0.817,4.254,2.454,5.7C804.973,121.536,807.224,122.26,810.092,122.26z"/>
		<path d="M840.927,85.785v-3.976h7.262v-6.41c0-4.409,1.109-7.816,3.327-10.224c2.218-2.407,5.315-3.611,9.291-3.611
			c0.865,0,1.758,0.068,2.678,0.203c0.919,0.136,1.853,0.325,2.8,0.568l-0.608,4.017c-0.649-0.162-1.313-0.29-1.988-0.385
			c-0.677-0.095-1.475-0.142-2.394-0.142c-2.651,0-4.687,0.839-6.106,2.516c-1.42,1.677-2.13,4.03-2.13,7.06v6.41h10.468v3.976
			h-10.468v35.825l6.613,0.527v3.57h-18.096v-3.57l6.613-0.527V85.785H840.927z"/>
		<path d="M871.03,103.109c0-6.464,1.771-11.766,5.314-15.904c3.544-4.138,8.236-6.208,14.079-6.208
			c5.869,0,10.575,2.069,14.119,6.208c3.543,4.139,5.314,9.44,5.314,15.904v1.339c0,6.491-1.765,11.8-5.295,15.925
			c-3.529,4.125-8.216,6.187-14.058,6.187c-5.897,0-10.616-2.062-14.16-6.187c-3.543-4.125-5.314-9.434-5.314-15.925V103.109z
			 M875.898,104.448c0,5.086,1.285,9.358,3.854,12.82c2.569,3.463,6.153,5.193,10.752,5.193c4.517,0,8.06-1.73,10.63-5.193
			c2.569-3.462,3.854-7.734,3.854-12.82v-1.339c0-5.004-1.292-9.25-3.875-12.74s-6.146-5.233-10.69-5.233s-8.102,1.744-10.671,5.233
			s-3.854,7.736-3.854,12.74V104.448z"/>
		<path d="M928.277,81.809l0.608,7.303v0.527c1.244-2.705,2.942-4.821,5.092-6.35c2.15-1.528,4.7-2.292,7.648-2.292
			c0.622,0,1.224,0.048,1.806,0.142c0.581,0.095,1.061,0.197,1.439,0.304l-0.648,4.544l-3.611-0.243
			c-3.057,0-5.565,0.859-7.526,2.576c-1.961,1.718-3.36,4.078-4.199,7.08v26.21l6.613,0.527v3.57h-18.054v-3.57l6.613-0.527V85.947
			l-6.613-0.527v-3.611h6.613H928.277z"/>
		<path d="M950.105,85.42v-3.611h10.914l0.446,7.262c1.405-2.569,3.286-4.557,5.639-5.964c2.354-1.406,5.153-2.11,8.398-2.11
			c3.354,0,6.153,0.818,8.398,2.455c2.245,1.637,3.854,4.132,4.828,7.486c1.325-3.083,3.212-5.511,5.66-7.283
			c2.447-1.771,5.43-2.658,8.946-2.658c4.679,0,8.297,1.556,10.853,4.666c2.557,3.111,3.834,7.925,3.834,14.444v21.462l6.613,0.568
			v3.57H1006.5v-3.57l6.613-0.568v-21.543c0-5.41-0.953-9.23-2.86-11.462c-1.906-2.231-4.564-3.347-7.972-3.347
			c-3.787,0-6.702,1.204-8.744,3.611c-2.042,2.408-3.307,5.477-3.793,9.21c0,0.217,0.006,0.42,0.021,0.608
			c0.013,0.189,0.02,0.433,0.02,0.73v22.233l6.613,0.527v3.57h-18.095v-3.57l6.613-0.527v-21.584c0-5.302-0.968-9.095-2.901-11.381
			c-1.934-2.285-4.591-3.428-7.972-3.428c-3.463,0-6.201,0.872-8.216,2.617c-2.016,1.745-3.429,4.091-4.24,7.039v26.737l6.613,0.527
			v3.57h-18.095v-3.57l6.613-0.527V85.947L950.105,85.42z"/>
		<path d="M1060.948,125.708c-0.325-1.487-0.555-2.772-0.69-3.854c-0.136-1.081-0.202-2.177-0.202-3.286
			c-1.623,2.299-3.787,4.206-6.492,5.721s-5.748,2.271-9.129,2.271c-4.3,0-7.627-1.108-9.98-3.326
			c-2.353-2.218-3.529-5.22-3.529-9.007c0-4.058,1.744-7.276,5.233-9.656s8.223-3.57,14.2-3.57h9.697v-5.802
			c0-3.138-1.009-5.599-3.023-7.384s-4.835-2.678-8.459-2.678c-2.435,0-4.659,0.332-6.674,0.994
			c-2.016,0.663-3.699,1.562-5.052,2.698l-0.405,5.883h-4.017l0.04-8.439c2.029-1.568,4.456-2.84,7.283-3.813
			c2.826-0.974,5.835-1.461,9.027-1.461c4.841,0,8.736,1.231,11.685,3.692c2.948,2.461,4.423,5.991,4.423,10.589v21.584
			c0,0.893,0.02,1.752,0.061,2.576c0.04,0.825,0.128,1.63,0.264,2.414l4.382,0.284v3.57H1060.948z M1044.963,122.26
			c3.516,0,6.613-0.812,9.291-2.435s4.61-3.719,5.802-6.289v-8.804h-9.778c-4.409,0-7.932,0.913-10.569,2.738
			c-2.637,1.826-3.955,4.132-3.955,6.918c0,2.353,0.817,4.254,2.454,5.7C1039.844,121.536,1042.095,122.26,1044.963,122.26z"/>
	</g>
</g>
</svg>
